<?xml version="1.0" encoding="UTF-8" standalone="no"?>
<svg
   version="1.1"
   width="28"
   height="28"
   color-interpolation="linearRGB"
   id="svg49"
   sodipodi:docname="agregararchivo.svg"
   inkscape:version="1.2.2 (b0a8486541, 2022-12-01)"
   xmlns:inkscape="http://www.inkscape.org/namespaces/inkscape"
   xmlns:sodipodi="http://sodipodi.sourceforge.net/DTD/sodipodi-0.dtd"
   xmlns="http://www.w3.org/2000/svg"
   xmlns:svg="http://www.w3.org/2000/svg">
  <defs
     id="defs53">
    <radialGradient
       id="gradient0"
       gradientUnits="userSpaceOnUse"
       cx="0"
       cy="0"
       r="64"
       gradientTransform="matrix(0.24133065,0,0,0.14076918,11.687962,13.546624)">
      <stop
         offset="1"
         stop-color="#fffcc0"
         id="stop6" />
      <stop
         offset="0.4886"
         stop-color="#f1b706"
         id="stop8" />
    </radialGradient>
    <linearGradient
       id="gradient1"
       gradientUnits="userSpaceOnUse"
       x1="107.04"
       y1="-17.09"
       x2="118.33"
       y2="27.99"
       gradientTransform="matrix(0.42234976,0,0,0.42234976,0.70686772,-1.2356173)">
      <stop
         offset="0"
         stop-color="#ffefa5"
         id="stop15" />
      <stop
         offset="0.7424"
         stop-color="#fffcc0"
         id="stop17" />
      <stop
         offset="1"
         stop-color="#fff890"
         id="stop19" />
    </linearGradient>
    <linearGradient
       id="gradient2"
       gradientUnits="userSpaceOnUse"
       x1="-47.139999"
       y1="-15.78"
       x2="-28.459999"
       y2="-37.849998"
       gradientTransform="matrix(0.42234976,0,0,0.42234976,0.70686772,-1.2356173)">
      <stop
         offset="0"
         stop-color="#010101"
         id="stop24" />
      <stop
         offset="1"
         stop-color="#9e9e9e"
         id="stop26" />
    </linearGradient>
    <linearGradient
       id="gradient3"
       gradientUnits="userSpaceOnUse"
       x1="-47.139999"
       y1="-15.78"
       x2="-28.459999"
       y2="-37.849998"
       gradientTransform="matrix(0.42234976,0,0,0.42234976,0.70686772,-1.2356173)">
      <stop
         offset="0"
         stop-color="#010101"
         id="stop31" />
      <stop
         offset="1"
         stop-color="#9e9e9e"
         id="stop33" />
    </linearGradient>
    <linearGradient
       id="gradient4"
       gradientUnits="userSpaceOnUse"
       x1="21.959999"
       y1="-0.0099999998"
       x2="57.169998"
       y2="22.58"
       gradientTransform="matrix(0.42234976,0,0,0.42234976,0.70686772,2.7643827)">
      <stop
         offset="0"
         stop-color="#fdfdfd"
         id="stop40" />
      <stop
         offset="1"
         stop-color="#8d8d8d"
         id="stop42" />
    </linearGradient>
    <linearGradient
       id="gradient0-3"
       gradientUnits="userSpaceOnUse"
       x1="128"
       y1="1.99"
       x2="128"
       y2="40">
      <stop
         offset="0"
         stop-color="#80ff80"
         id="stop6-6" />
      <stop
         offset="1"
         stop-color="#00b300"
         id="stop8-7" />
    </linearGradient>
  </defs>
  <sodipodi:namedview
     id="namedview51"
     pagecolor="#ffffff"
     bordercolor="#000000"
     borderopacity="0.25"
     inkscape:showpageshadow="2"
     inkscape:pageopacity="0.0"
     inkscape:pagecheckerboard="0"
     inkscape:deskcolor="#d1d1d1"
     showgrid="false"
     inkscape:zoom="12.9375"
     inkscape:cx="21.024155"
     inkscape:cy="19.63285"
     inkscape:window-width="1920"
     inkscape:window-height="1052"
     inkscape:window-x="0"
     inkscape:window-y="0"
     inkscape:window-maximized="1"
     inkscape:current-layer="svg49" />
  <path
     style="fill:#010101;fill-opacity:0.5725;stroke-width:0.42235"
     d="m 12.110312,22.838319 0.844699,0.844699 1.321955,-1.338848 2.056843,1.338848 3.543515,-4.840128 7.859929,-4.029217 -2.111749,-1.267049 0.8447,0.8447 -10.558744,5.068197 z m 13.092842,-9.714045 1.689399,-1.267049 -1.689399,-0.844699 -1.267049,1.267049 z"
     id="path2" />
  <path
     style="fill:none;stroke:#010101;stroke-width:1.6894"
     d="m 3.3465538,11.434875 c 0,0 2.3736056,2.534099 4.4853543,5.279372 2.1117488,2.745274 3.9616409,5.596135 3.9616409,5.596135 L 25.676186,14.336418 14.22206,5.0996291 Z"
     id="path4" />
  <path
     style="fill:url(#gradient0);stroke-width:0.42235"
     d="m 3.3465538,11.434875 c 0,0 2.3736056,2.534099 4.4853543,5.279372 2.1117488,2.745274 3.9616409,5.596135 3.9616409,5.596135 L 25.676186,14.336418 14.22206,5.0996291 Z"
     id="path11" />
  <path
     style="fill:none;stroke:#010101;stroke-width:1.6894"
     d="m 1.813424,11.802319 c 0,0 3.5181736,2.276466 6.9180892,4.645848 3.5646328,2.483416 7.0743588,4.595165 7.0743588,4.595165 L 25.253836,9.9017459 c 0,0 -5.355395,-2.3947232 -9.608457,-4.6458474 C 13.453384,4.0944367 11.687962,2.7218 11.687962,2.7218 Z"
     id="path13" />
  <path
     style="fill:url(#gradient1);stroke-width:0.42235"
     d="m 1.813424,11.802319 c 0,0 3.5181736,2.276466 6.9180892,4.645848 3.5646328,2.483416 7.0743588,4.595165 7.0743588,4.595165 L 25.253836,9.9017459 c 0,0 -5.355395,-2.3947232 -9.608457,-4.6458474 C 13.453384,4.0944367 11.687962,2.7218 11.687962,2.7218 Z"
     id="path22" />
  <path
     style="fill:none;stroke:url(#gradient2);stroke-width:0.42235"
     d="M 9.1538629,13.968974 15.434204,7.5788222 M 6.6197644,12.279575 12.055406,6.7890281 m -0.367444,8.8693449 5.384959,-5.545452 m -2.850861,7.234851 4.54026,-4.911928"
     id="path29" />
  <path
     style="fill:none;stroke:url(#gradient3);stroke-width:0.42235"
     d="M 12.955011,16.503072 19.290258,9.9017459 M 10.420913,14.813673 15.383522,9.8510639 M 7.8868137,13.124274 12.583343,8.3179343"
     id="path36" />
  <g
     id="g13"
     transform="matrix(0.23293728,0,0,0.23293728,12.958707,13.021839)">
    <path
       style="fill:none;stroke:#000000;stroke-width:4;stroke-linecap:round;stroke-linejoin:round;stroke-opacity:0.4"
       d="M 26,2 H 16 V 16 H 2 V 26 H 16 V 40 H 26 V 26 H 40 V 16 H 26 Z"
       transform="matrix(1.409,0,0,1.409,3.8181,3.8181)"
       id="path2-5" />
    <path
       style="fill:none;stroke:#005900;stroke-width:4;stroke-linecap:round;stroke-linejoin:round"
       d="M 26,2 H 16 V 16 H 2 V 26 H 16 V 40 H 26 V 26 H 40 V 16 H 26 Z"
       transform="matrix(1.409,0,0,1.409,1,1)"
       id="path4-3" />
    <linearGradient
       id="linearGradient342"
       gradientUnits="userSpaceOnUse"
       x1="128"
       y1="1.99"
       x2="128"
       y2="40">
      <stop
         offset="0"
         stop-color="#80ff80"
         id="stop338" />
      <stop
         offset="1"
         stop-color="#00b300"
         id="stop340" />
    </linearGradient>
    <path
       style="fill:url(#gradient0-3)"
       d="M 26,2 H 16 V 16 H 2 V 26 H 16 V 40 H 26 V 26 H 40 V 16 H 26 Z"
       transform="matrix(1.409,0,0,1.409,1,1)"
       id="path11-5" />
  </g>
</svg>
