<?xml version="1.0" encoding="UTF-8" standalone="no"?>
<svg
   version="1.1"
   width="28"
   height="28"
   color-interpolation="linearRGB"
   id="svg12"
   sodipodi:docname="ayuda.svg"
   inkscape:version="1.2.2 (b0a8486541, 2022-12-01)"
   xmlns:inkscape="http://www.inkscape.org/namespaces/inkscape"
   xmlns:sodipodi="http://sodipodi.sourceforge.net/DTD/sodipodi-0.dtd"
   xmlns="http://www.w3.org/2000/svg"
   xmlns:svg="http://www.w3.org/2000/svg">
  <defs
     id="defs16" />
  <sodipodi:namedview
     id="namedview14"
     pagecolor="#ffffff"
     bordercolor="#000000"
     borderopacity="0.25"
     inkscape:showpageshadow="2"
     inkscape:pageopacity="0.0"
     inkscape:pagecheckerboard="0"
     inkscape:deskcolor="#d1d1d1"
     showgrid="false"
     inkscape:zoom="13.5625"
     inkscape:cx="26.764977"
     inkscape:cy="14.304147"
     inkscape:window-width="1920"
     inkscape:window-height="1052"
     inkscape:window-x="0"
     inkscape:window-y="0"
     inkscape:window-maximized="1"
     inkscape:current-layer="svg12" />
  <g
     id="g10"
     transform="matrix(0.46032816,0,0,0.46032816,-0.68016541,-0.68066494)">
    <path
       style="fill:#326698"
       d="M 32,4 C 16.53,4 4,16.53 4,32 4,47.46 16.53,60 32,60 47.46,60 60,47.46 60,32 60,16.53 47.46,4 32,4 Z"
       id="path2" />
    <path
       style="fill:none;stroke:#23476b;stroke-width:4"
       d="M 32,4 C 16.53,4 4,16.53 4,32 4,47.46 16.53,60 32,60 47.46,60 60,47.46 60,32 60,16.53 47.46,4 32,4 Z"
       id="path4" />
    <path
       style="fill:#ffffff"
       d="m 36,42.07 v 4 H 19 v -4 h 4 v -18 h -4 v -4 h 13 v 22 z"
       transform="translate(5,5)"
       id="path6" />
    <path
       style="fill:#ffffff"
       d="M 32,4 C 16.53,4 4,16.53 4,32 4,47.46 16.53,60 32,60 47.46,60 60,47.46 60,32 60,16.53 47.46,4 32,4 Z"
       transform="matrix(0.1607,0,0,0.1607,26.3571,10.3571)"
       id="path8" />
  </g>
</svg>
