<?xml version="1.0" encoding="UTF-8" standalone="no"?>
<svg
   version="1.1"
   width="28"
   height="28"
   color-interpolation="linearRGB"
   id="svg59"
   sodipodi:docname="leido.svg"
   inkscape:version="1.2.2 (b0a8486541, 2022-12-01)"
   xmlns:inkscape="http://www.inkscape.org/namespaces/inkscape"
   xmlns:sodipodi="http://sodipodi.sourceforge.net/DTD/sodipodi-0.dtd"
   xmlns="http://www.w3.org/2000/svg"
   xmlns:svg="http://www.w3.org/2000/svg">
  <defs
     id="defs63" />
  <sodipodi:namedview
     id="namedview61"
     pagecolor="#ffffff"
     bordercolor="#000000"
     borderopacity="0.25"
     inkscape:showpageshadow="2"
     inkscape:pageopacity="0.0"
     inkscape:pagecheckerboard="0"
     inkscape:deskcolor="#d1d1d1"
     showgrid="false"
     inkscape:zoom="13.5625"
     inkscape:cx="26.986175"
     inkscape:cy="26.101382"
     inkscape:window-width="1920"
     inkscape:window-height="1054"
     inkscape:window-x="0"
     inkscape:window-y="0"
     inkscape:window-maximized="1"
     inkscape:current-layer="svg59" />
  <g
     id="g57"
     transform="matrix(0.45740938,0,0,0.45740938,-2.0786126,-1.4611756)">
    <path
       style="fill:#010101;fill-opacity:0.4431"
       d="M 38,64 H 48 C 52,64 60,56 58,54 56,52 46,50 46,50 Z"
       id="path2" />
    <path
       style="fill:none;stroke:#000000;stroke-width:4;stroke-linejoin:round"
       d="m 14,50 c 0,0 5,3 11,6 6,3 13,6 13,6 l 8,-8 V 30 C 46,30 38.81,27.27 32,25 27.15,23.38 22,22 22,22 l -8,4 z"
       id="path4" />
    <linearGradient
       id="gradient0"
       gradientUnits="userSpaceOnUse"
       x1="11.12"
       y1="5.4000001"
       x2="45.959999"
       y2="12.16">
      <stop
         offset="0"
         stop-color="#fffbcc"
         id="stop6" />
      <stop
         offset="1"
         stop-color="#f3d048"
         id="stop8" />
      <stop
         offset="0.7572"
         stop-color="#d1af27"
         id="stop10" />
    </linearGradient>
    <path
       style="fill:url(#gradient0)"
       d="m 14,50 c 0,0 5,3 11,6 6,3 13,6 13,6 V 36 C 38,36 31,33.5 25,31 19,28.5 14,26 14,26 Z"
       id="path13" />
    <linearGradient
       id="gradient1"
       gradientUnits="userSpaceOnUse"
       x1="42.830002"
       y1="10.16"
       x2="58.709999"
       y2="12.92">
      <stop
         offset="0.1847"
         stop-color="#9e8707"
         id="stop15" />
      <stop
         offset="0"
         stop-color="#b59e04"
         id="stop17" />
      <stop
         offset="1"
         stop-color="#eec740"
         id="stop19" />
    </linearGradient>
    <path
       style="fill:url(#gradient1)"
       d="m 38,62 8,-8 V 30 l -8,6 z"
       id="path22" />
    <linearGradient
       id="gradient2"
       gradientUnits="userSpaceOnUse"
       x1="26.25"
       y1="15.75"
       x2="45.75"
       y2="15.75">
      <stop
         offset="0.3695"
         stop-color="#f6e156"
         id="stop24" />
      <stop
         offset="0.5833"
         stop-color="#c9a514"
         id="stop26" />
      <stop
         offset="1"
         stop-color="#f7e35d"
         id="stop28" />
      <stop
         offset="0"
         stop-color="#c9a515"
         id="stop30" />
    </linearGradient>
    <path
       style="fill:url(#gradient2)"
       d="m 24,28 h 12 v 5 h 6 l 4,-3 C 46,30 34.88,25.96 32,25 30.97,24.65 29.92,24.32 28.91,24.01 L 26,24 Z"
       id="path33" />
    <linearGradient
       id="gradient3"
       gradientUnits="userSpaceOnUse"
       x1="18"
       y1="-6"
       x2="46"
       y2="-6">
      <stop
         offset="0"
         stop-color="#fff8ea"
         id="stop35" />
      <stop
         offset="1"
         stop-color="#f5de63"
         id="stop37" />
    </linearGradient>
    <path
       style="fill:url(#gradient3)"
       d="m 14,26 c 0,0 5,2.5 11,5 6,2.5 13,5 13,5 l 4,-3 H 36 V 28 H 24 l 2,-4 2.91,0.01 C 25.19,22.85 22,22 22,22 Z"
       id="path40" />
    <path
       style="fill:#625a02"
       d="m 25,38 c -3,-1 -2,3.43 0,4.43 l -2,6.57 4,2 2,3 -8,-3.75 2,-6.25 c -2,-1 -3,-8 2,-6 z"
       id="path42" />
    <path
       style="fill:#272401"
       d="m 25,38 c 5,2 4,9 2,8 l 2,8 -2,-3 -4,-2 2,-6.57 C 23,41.43 22,37 25,38 Z M 22,17 v 8 c 0,0.66 0.67,1 2,1 1.32,0 2,-0.34 2,-1 v -6 c 0,-4 0,-10 4,-9 4,1 4,8 4,13 v 7 c 0,1 0.98,1.03 2,1 0.97,-0.03 2,0 2,-1 V 25 C 38,20 39,8 30,6 23.45,4.54 22,12 22,17 Z"
       id="path44" />
    <path
       style="fill:none;stroke:#000000;stroke-width:4;stroke-linecap:round"
       d="m 22,17 v 8 c 0,0.66 0.67,1 2,1 1.32,0 2,-0.34 2,-1 v -6 c 0,-4 0,-10 4,-9 4,1 4,8 4,13 v 7 c 0,1 0.98,1.03 2,1 0.97,-0.03 2,0 2,-1 V 25 C 38,20 39,8 30,6 23.45,4.54 22,12 22,17 Z"
       id="path46" />
    <radialGradient
       id="gradient4"
       gradientUnits="userSpaceOnUse"
       cx="0"
       cy="0"
       r="64"
       gradientTransform="matrix(0.2161,-0.0247,0.0534,0.4665,30.2118,22.626)">
      <stop
         offset="0.2971"
         stop-color="#bebebe"
         id="stop48" />
      <stop
         offset="0.6014"
         stop-color="#ffffff"
         id="stop50" />
      <stop
         offset="0.3949"
         stop-color="#767676"
         id="stop52" />
    </radialGradient>
    <path
       style="fill:url(#gradient4)"
       d="m 22,17 v 8 c 0,0.66 0.67,1 2,1 1.32,0 2,-0.34 2,-1 v -6 c 0,-4 0,-10 4,-9 4,1 4,8 4,13 v 7 c 0,1 0.98,1.03 2,1 0.97,-0.03 2,0 2,-1 V 25 C 38,20 39,8 30,6 23.45,4.54 22,12 22,17 Z"
       id="path55" />
  </g>
</svg>
