<?xml version="1.0" encoding="UTF-8" standalone="no"?>
<svg
   id="Layer_1"
   data-name="Layer 1"
   viewBox="0 0 27.999999 28"
   version="1.1"
   sodipodi:docname="Bash_Logo.svg"
   width="28"
   height="28"
   inkscape:version="1.2.2 (b0a8486541, 2022-12-01)"
   xmlns:inkscape="http://www.inkscape.org/namespaces/inkscape"
   xmlns:sodipodi="http://sodipodi.sourceforge.net/DTD/sodipodi-0.dtd"
   xmlns="http://www.w3.org/2000/svg"
   xmlns:svg="http://www.w3.org/2000/svg"
   xmlns:rdf="http://www.w3.org/1999/02/22-rdf-syntax-ns#"
   xmlns:cc="http://creativecommons.org/ns#"
   xmlns:dc="http://purl.org/dc/elements/1.1/">
  <sodipodi:namedview
     id="namedview11"
     pagecolor="#ffffff"
     bordercolor="#000000"
     borderopacity="0.25"
     inkscape:showpageshadow="2"
     inkscape:pageopacity="0.0"
     inkscape:pagecheckerboard="0"
     inkscape:deskcolor="#d1d1d1"
     showgrid="false"
     inkscape:zoom="9.5689561"
     inkscape:cx="32.605437"
     inkscape:cy="28.634262"
     inkscape:window-width="1920"
     inkscape:window-height="1054"
     inkscape:window-x="0"
     inkscape:window-y="0"
     inkscape:window-maximized="1"
     inkscape:current-layer="Layer_1" />
  <defs
     id="defs4">
    <style
       id="style2">.cls-1{fill:#1b1b1f;}</style>
  </defs>
  <title
     id="title6">BASH_logo-transparent-bg-bw</title>
  <path
     class="cls-1"
     d="M 24.221078,5.9342482 15.568453,0.7982625 a 3.2598403,3.2598403 0 0 0 -3.323286,0 L 3.5925349,5.9342482 a 3.4501739,3.4501739 0 0 0 -1.68279,2.9728292 V 19.179048 a 3.4501739,3.4501739 0 0 0 1.6676843,2.972829 l 8.6526328,5.135985 a 3.2598403,3.2598403 0 0 0 3.323285,0 l 8.652624,-5.135985 a 3.4501739,3.4501739 0 0 0 1.667685,-2.972829 V 8.9070774 A 3.4501739,3.4501739 0 0 0 24.221078,5.9342482 Z M 17.520127,21.973628 v 0.737166 a 0.27190512,0.27190512 0 0 1 -0.12689,0.226586 l -0.438069,0.250757 c -0.06948,0.03626 -0.126888,0 -0.126888,-0.09668 v -0.72508 a 1.4229701,1.4229701 0 0 1 -0.996986,0.09668 0.13293139,0.13293139 0 0 1 -0.04833,-0.163143 l 0.157101,-0.667679 a 0.27794745,0.27794745 0 0 1 0.08761,-0.145017 0.17522775,0.17522775 0 0 1 0.0423,-0.0302 0.08761388,0.08761388 0 0 1 0.06948,0 1.2084672,1.2084672 0 0 0 0.90635,-0.114804 1.2084672,1.2084672 0 0 0 0.676742,-1.036261 c 0,-0.374625 -0.205439,-0.531725 -0.70091,-0.534747 -0.628404,0 -1.208468,-0.120847 -1.223573,-1.048345 a 2.6858183,2.6858183 0 0 1 1.015112,-2.054395 v -0.746228 a 0.26888396,0.26888396 0 0 1 0.126889,-0.229608 l 0.422963,-0.268884 c 0.06948,-0.03626 0.12689,0 0.12689,0.0997 v 0.746228 a 1.3776526,1.3776526 0 0 1 0.8278,-0.0997 0.13293139,0.13293139 0 0 1 0.05438,0.172207 l -0.148037,0.661635 a 0.2839898,0.2839898 0 0 1 -0.07553,0.132932 0.17522775,0.17522775 0 0 1 -0.0423,0.03323 0.09969855,0.09969855 0 0 1 -0.06345,0 1.096684,1.096684 0 0 0 -0.797589,0.129911 1.0030278,1.0030278 0 0 0 -0.604233,0.888222 c 0,0.338372 0.178248,0.44109 0.77644,0.453176 0.80061,0 1.145023,0.36254 1.154087,1.166171 a 2.8640673,2.8640673 0 0 1 -1.051367,2.166176 z m 4.531751,-1.2417 a 0.17220657,0.17220657 0 0 1 -0.06646,0.166165 l -2.187326,1.329314 A 0.06344453,0.06344453 0 0 1 19.69537,22.163957 V 21.599 a 0.15710073,0.15710073 0 0 1 0.0997,-0.138975 l 2.154092,-1.290038 a 0.06344453,0.06344453 0 0 1 0.102723,0.06345 z M 23.562463,8.1004255 15.375097,13.157861 c -1.021154,0.604233 -1.773425,1.265869 -1.773425,2.495484 v 10.084658 c 0,0.737166 0.302116,1.208468 0.755292,1.353483 A 2.6495643,2.6495643 0 0 1 13.903788,27.136806 2.679776,2.679776 0 0 1 12.53822,26.75916 L 3.8855895,21.623173 A 2.8459403,2.8459403 0 0 1 2.5139785,19.179048 V 8.9070774 a 2.8459403,2.8459403 0 0 1 1.371611,-2.447146 L 12.53822,1.3239457 a 2.6676913,2.6676913 0 0 1 2.719052,0 l 8.652625,5.1359857 a 2.8278133,2.8278133 0 0 1 1.329314,1.9788649 C 24.958242,7.8285205 24.311712,7.6593348 23.559442,8.1004255 Z"
     id="path8"
     style="stroke-width:0.302117" />
  <metadata
     id="metadata240">
    <rdf:RDF>
      <cc:Work
         rdf:about="">
        <dc:title>BASH_logo-transparent-bg-bw</dc:title>
      </cc:Work>
    </rdf:RDF>
  </metadata>
</svg>
