<?xml version="1.0" encoding="UTF-8" standalone="no"?>
<svg
   version="1.1"
   width="28"
   height="28"
   color-interpolation="linearRGB"
   id="svg111"
   sodipodi:docname="mensajeria.svg"
   inkscape:version="1.2.2 (b0a8486541, 2022-12-01)"
   xmlns:inkscape="http://www.inkscape.org/namespaces/inkscape"
   xmlns:sodipodi="http://sodipodi.sourceforge.net/DTD/sodipodi-0.dtd"
   xmlns="http://www.w3.org/2000/svg"
   xmlns:svg="http://www.w3.org/2000/svg">
  <defs
     id="defs115" />
  <sodipodi:namedview
     id="namedview113"
     pagecolor="#ffffff"
     bordercolor="#000000"
     borderopacity="0.25"
     inkscape:showpageshadow="2"
     inkscape:pageopacity="0.0"
     inkscape:pagecheckerboard="0"
     inkscape:deskcolor="#d1d1d1"
     showgrid="false"
     inkscape:zoom="13.5625"
     inkscape:cx="26.764977"
     inkscape:cy="20.202765"
     inkscape:window-width="1920"
     inkscape:window-height="1052"
     inkscape:window-x="0"
     inkscape:window-y="0"
     inkscape:window-maximized="1"
     inkscape:current-layer="svg111" />
  <g
     id="g109"
     transform="matrix(0.43077399,0,0,0.43077399,0.25491909,0.31101904)">
    <path
       style="fill:#000000;fill-opacity:0.4156"
       d="m 25,64 h 3 L 38,54 c 0,0 4,0 6,0 2,0 5,-1 7,-3 0.53,-0.54 5.37,-5 5.37,-5 H 59 l 4,-6 -1.5,-1 c 2,-3 2.5,-4 2.5,-7 0,-3 -2,-4 -4,-5 z"
       id="path2" />
    <path
       style="fill:none;stroke:#000000;stroke-width:4;stroke-linejoin:round"
       d="M 58,32 V 20 C 58,11 55,6 46,3 41,1 37,2 31,5 l -17,8 c -2.24,2.04 -4,5.72 -3.99,9.98 L 10,41 l 2,1 -10,7 23,13 10,-10 1.98,1.01 z"
       id="path4" />
    <linearGradient
       id="gradient0"
       gradientUnits="userSpaceOnUse"
       x1="88.510002"
       y1="-66.760002"
       x2="125.88"
       y2="-12.97">
      <stop
         offset="0.2894"
         stop-color="#5f8493"
         id="stop6" />
      <stop
         offset="0.5227"
         stop-color="#eaf7ff"
         id="stop8" />
      <stop
         offset="0.639"
         stop-color="#a5b7c2"
         id="stop10" />
      <stop
         offset="0.7631"
         stop-color="#a0bccc"
         id="stop12" />
      <stop
         offset="0.8646"
         stop-color="#748994"
         id="stop14" />
      <stop
         offset="1"
         stop-color="#829ab2"
         id="stop16" />
    </linearGradient>
    <path
       style="fill:url(#gradient0)"
       d="M 58,32 V 20 C 58,11 55,6 46,3 41,1 37,2 31,5 l -17,8 22,24 v 17 z"
       id="path19" />
    <linearGradient
       id="gradient1"
       gradientUnits="userSpaceOnUse"
       x1="33.049999"
       y1="-13.06"
       x2="62.02"
       y2="15.9">
      <stop
         offset="0"
         stop-color="#acd3db"
         id="stop21" />
      <stop
         offset="0.624"
         stop-color="#ffffff"
         id="stop23" />
      <stop
         offset="1"
         stop-color="#6492a8"
         id="stop25" />
    </linearGradient>
    <path
       style="fill:url(#gradient1)"
       d="M 38,39 C 39.07,27.99 36.48,17.24 28,13 c -4,-2 -8,-2 -13,0 5,0 7,0 10,2 7.11,4.73 12,12 13,24 z"
       id="path28" />
    <path
       style="fill:none;stroke:#000000;stroke-width:4"
       d="m 36,54 c 0,0 0,-7 0,-16 0,-9 -2.37,-18.19 -12,-23 -4.23,-2.12 -8,-2 -11,0"
       id="path30" />
    <linearGradient
       id="gradient2"
       gradientUnits="userSpaceOnUse"
       x1="-9.25"
       y1="2.9300001"
       x2="8.0600004"
       y2="-8.8800001">
      <stop
         offset="0"
         stop-color="#f7fbfd"
         id="stop32" />
      <stop
         offset="1"
         stop-color="#31596b"
         id="stop34" />
    </linearGradient>
    <path
       style="fill:url(#gradient2)"
       d="M 24,15 C 14.06,10.02 10,16 10.01,25.98 L 10,41 11,26 C 11,16 14,10 24,15 h 0.01 z"
       id="path37" />
    <linearGradient
       id="gradient3"
       gradientUnits="userSpaceOnUse"
       x1="66.959999"
       y1="38.950001"
       x2="47.68"
       y2="61.299999">
      <stop
         offset="0"
         stop-color="#343d41"
         id="stop39" />
      <stop
         offset="0.1879"
         stop-color="#364145"
         id="stop41" />
      <stop
         offset="1"
         stop-color="#566f7a"
         id="stop43" />
    </linearGradient>
    <path
       style="fill:url(#gradient3)"
       d="M 24,15 C 14.06,10.02 11,16 11.01,25.98 L 11,41 34.46,26.95 C 32.63,21.6 29.15,17.57 24.01,15 Z"
       id="path46" />
    <linearGradient
       id="gradient4"
       gradientUnits="userSpaceOnUse"
       x1="3.3"
       y1="28.059999"
       x2="29.74"
       y2="7.3600001">
      <stop
         offset="0"
         stop-color="#435563"
         id="stop48" />
      <stop
         offset="1"
         stop-color="#2d4048"
         id="stop50" />
    </linearGradient>
    <path
       style="fill:url(#gradient4)"
       d="m 12,42 c 0,0 15,-1 24,3 V 37 C 35.98,33.26 35.47,29.9 34.46,26.95 L 10,41 Z"
       id="path53" />
    <linearGradient
       id="gradient5"
       gradientUnits="userSpaceOnUse"
       x1="-7.3200002"
       y1="52.740002"
       x2="-4.1399999"
       y2="33.48">
      <stop
         offset="0"
         stop-color="#bed1db"
         id="stop55" />
      <stop
         offset="1"
         stop-color="#8dadba"
         id="stop57" />
    </linearGradient>
    <path
       style="fill:url(#gradient5)"
       d="m 36,45 v 7.5 L 35,52 25,62 2,49 12,42 c 0,0 15,-1 24,3 z"
       id="path60" />
    <path
       style="fill:#7795a3"
       d="M 15,44 8,49 19,56 34,44 Z"
       id="path62" />
    <path
       style="fill:none;stroke:#000000;stroke-width:4"
       d="M 11.86,29.98 3,35 18,52 31.85,41.99 C 31.85,41.99 29,39 24,36 19,33 11.86,29.98 11.86,29.98 Z M 36,34 26,22 11.86,29.98 c 0,0 7.14,3.02 12.14,6.02 5,3 7.85,5.99 7.85,5.99 L 36,39 Z"
       id="path64" />
    <linearGradient
       id="gradient6"
       gradientUnits="userSpaceOnUse"
       x1="25.01"
       y1="14.97"
       x2="41.57"
       y2="33.52">
      <stop
         offset="0"
         stop-color="#ffeec0"
         id="stop66" />
      <stop
         offset="1"
         stop-color="#e7d6a8"
         id="stop68" />
    </linearGradient>
    <path
       style="fill:url(#gradient6)"
       d="M 11.86,29.98 3,35 18,52 31.85,41.99 C 31.85,41.99 29,39 24,36 19,33 11.86,29.98 11.86,29.98 Z"
       id="path71" />
    <linearGradient
       id="gradient7"
       gradientUnits="userSpaceOnUse"
       x1="1.65"
       y1="13.86"
       x2="13.11"
       y2="4.2800002">
      <stop
         offset="0"
         stop-color="#b4a06b"
         id="stop73" />
      <stop
         offset="1"
         stop-color="#a28b4e"
         id="stop75" />
    </linearGradient>
    <path
       style="fill:url(#gradient7)"
       d="M 36,34 26,22 11.86,29.98 c 0,0 7.14,3.02 12.14,6.02 5,3 7.85,5.99 7.85,5.99 L 36,39 Z"
       id="path78" />
    <path
       style="fill:#826a31"
       d="m 3,35 c 0,0 7.73,2.44 14,3.41 L 18,51 18.65,38.63 c 2.83,0.32 5.13,0.23 5.92,-0.71 0.47,-0.56 0.79,-2.27 1,-4.38 L 36,36 25.69,32.1 C 26.04,27.52 26,22 26,22 26,22 25,34 23,36 21,38 3,35 3,35 Z"
       id="path80" />
    <path
       style="fill:none;stroke:#000000;stroke-width:4"
       d="m 44,7 v 24 l 2,1 1,-1 V 18 l 7,-6 V 3 L 52,2 Z"
       id="path82" />
    <path
       style="fill:#f20606"
       d="M 46,17.99 V 8 l 8,-5 v 9 l -6,5 z"
       id="path84" />
    <linearGradient
       id="gradient8"
       gradientUnits="userSpaceOnUse"
       x1="76.169998"
       y1="3.0699999"
       x2="76.550003"
       y2="31.1">
      <stop
         offset="0"
         stop-color="#ffc7ba"
         id="stop86" />
      <stop
         offset="1"
         stop-color="#c31a1a"
         id="stop88" />
    </linearGradient>
    <path
       style="fill:url(#gradient8)"
       d="M 44,16.88 V 7 l 2,1 v 9.88 z"
       id="path91" />
    <path
       style="fill:#faa28e"
       d="M 44,7 46,8 54,3 52,2 Z"
       id="path93" />
    <linearGradient
       id="gradient9"
       gradientUnits="userSpaceOnUse"
       x1="76.169998"
       y1="3.0699999"
       x2="76.550003"
       y2="31.1">
      <stop
         offset="0.0075"
         stop-color="#e3e3e3"
         id="stop95" />
      <stop
         offset="1"
         stop-color="#59697a"
         id="stop97" />
    </linearGradient>
    <path
       style="fill:url(#gradient9)"
       d="M 46,32 V 17.99 L 47,18 v 13 z"
       id="path100" />
    <linearGradient
       id="gradient10"
       gradientUnits="userSpaceOnUse"
       x1="75.169998"
       y1="4.0700002"
       x2="75.550003"
       y2="32.099998">
      <stop
         offset="0"
         stop-color="#d6d9dc"
         id="stop102" />
      <stop
         offset="1"
         stop-color="#788999"
         id="stop104" />
    </linearGradient>
    <path
       style="fill:url(#gradient10)"
       d="M 46,32 44,31 V 16.99 l 2,1.14 z"
       id="path107" />
  </g>
</svg>
